<?xml version="1.0" encoding="utf-8" standalone="no"?>
<!DOCTYPE svg PUBLIC "-//W3C//DTD SVG 1.1//EN"
  "http://www.w3.org/Graphics/SVG/1.1/DTD/svg11.dtd">
<svg xmlns:xlink="http://www.w3.org/1999/xlink" width="288pt" height="216pt" viewBox="0 0 288 216" xmlns="http://www.w3.org/2000/svg" version="1.1">
 <metadata>
  <rdf:RDF xmlns:dc="http://purl.org/dc/elements/1.1/" xmlns:cc="http://creativecommons.org/ns#" xmlns:rdf="http://www.w3.org/1999/02/22-rdf-syntax-ns#">
   <cc:Work>
    <dc:type rdf:resource="http://purl.org/dc/dcmitype/StillImage"/>
    <dc:date>2023-12-29T16:59:35.095487</dc:date>
    <dc:format>image/svg+xml</dc:format>
    <dc:creator>
     <cc:Agent>
      <dc:title>Matplotlib v3.8.0, https://matplotlib.org/</dc:title>
     </cc:Agent>
    </dc:creator>
   </cc:Work>
  </rdf:RDF>
 </metadata>
 <defs>
  <style type="text/css">*{stroke-linejoin: round; stroke-linecap: butt}</style>
 </defs>
 <g id="figure_1">
  <g id="patch_1">
   <path d="M 0 216 
L 288 216 
L 288 0 
L 0 0 
z
" style="fill: #ffffff"/>
  </g>
  <g id="axes_1">
   <g id="patch_2">
    <path d="M 39.26 178.36 
L 272.79 178.36 
L 272.79 22.56 
L 39.26 22.56 
z
" style="fill: #ffffff"/>
   </g>
   <g id="PathCollection_1">
    <path d="M 116.584378 155.679265 
L 116.22939 156.771805 
L 115.080625 156.771805 
L 116.009995 157.447032 
L 115.655008 158.539572 
L 116.584378 157.864345 
L 117.513748 158.539572 
L 117.15876 157.447032 
L 118.08813 156.771805 
L 116.939366 156.771805 
z
" clip-path="url(#pe72e949bff)" style="fill: #008000; fill-opacity: 0.6; stroke: #008000; stroke-opacity: 0.6"/>
    <path d="M 115.027511 156.385528 
L 114.672523 157.478068 
L 113.523759 157.478068 
L 114.453129 158.153295 
L 114.098141 159.245835 
L 115.027511 158.570608 
L 115.956881 159.245835 
L 115.601893 158.153295 
L 116.531263 157.478068 
L 115.382499 157.478068 
z
" clip-path="url(#pe72e949bff)" style="fill: #008000; fill-opacity: 0.6; stroke: #008000; stroke-opacity: 0.6"/>
    <path d="M 117.103333 154.001891 
L 116.748346 155.094432 
L 115.599581 155.094432 
L 116.528951 155.769658 
L 116.173963 156.862198 
L 117.103333 156.186972 
L 118.032703 156.862198 
L 117.677716 155.769658 
L 118.607086 155.094432 
L 117.458321 155.094432 
z
" clip-path="url(#pe72e949bff)" style="fill: #008000; fill-opacity: 0.6; stroke: #008000; stroke-opacity: 0.6"/>
    <path d="M 115.027511 154.619871 
L 114.672523 155.712411 
L 113.523759 155.712411 
L 114.453129 156.387638 
L 114.098141 157.480178 
L 115.027511 156.804951 
L 115.956881 157.480178 
L 115.601893 156.387638 
L 116.531263 155.712411 
L 115.382499 155.712411 
z
" clip-path="url(#pe72e949bff)" style="fill: #008000; fill-opacity: 0.6; stroke: #008000; stroke-opacity: 0.6"/>
    <path d="M 119.179156 151.353407 
L 118.824168 152.445947 
L 117.675403 152.445947 
L 118.604773 153.121174 
L 118.249785 154.213714 
L 119.179156 153.538487 
L 120.108526 154.213714 
L 119.753538 153.121174 
L 120.682908 152.445947 
L 119.534143 152.445947 
z
" clip-path="url(#pe72e949bff)" style="fill: #008000; fill-opacity: 0.6; stroke: #008000; stroke-opacity: 0.6"/>
    <path d="M 121.254978 150.382296 
L 120.89999 151.474836 
L 119.751225 151.474836 
L 120.680595 152.150062 
L 120.325608 153.242603 
L 121.254978 152.567376 
L 122.184348 153.242603 
L 121.82936 152.150062 
L 122.75873 151.474836 
L 121.609966 151.474836 
z
" clip-path="url(#pe72e949bff)" style="fill: #008000; fill-opacity: 0.6; stroke: #008000; stroke-opacity: 0.6"/>
    <path d="M 109.319 143.496235 
L 108.964012 144.588775 
L 107.815248 144.588775 
L 108.744618 145.264002 
L 108.38963 146.356542 
L 109.319 145.681315 
L 110.24837 146.356542 
L 109.893382 145.264002 
L 110.822752 144.588775 
L 109.673988 144.588775 
z
" clip-path="url(#pe72e949bff)" style="fill: #008000; fill-opacity: 0.6; stroke: #008000; stroke-opacity: 0.6"/>
    <path d="M 113.9896 149.322902 
L 113.634612 150.415442 
L 112.485848 150.415442 
L 113.415218 151.090669 
L 113.06023 152.183209 
L 113.9896 151.507982 
L 114.91897 152.183209 
L 114.563982 151.090669 
L 115.493352 150.415442 
L 114.344588 150.415442 
z
" clip-path="url(#pe72e949bff)" style="fill: #008000; fill-opacity: 0.6; stroke: #008000; stroke-opacity: 0.6"/>
   </g>
   <g id="PathCollection_2">
    <path d="M 107.606447 156.987603 
C 108.02577 156.987603 108.427975 156.821005 108.724481 156.524499 
C 109.020987 156.227993 109.187585 155.825788 109.187585 155.406465 
C 109.187585 154.987142 109.020987 154.584937 108.724481 154.288431 
C 108.427975 153.991925 108.02577 153.825326 107.606447 153.825326 
C 107.187124 153.825326 106.784919 153.991925 106.488413 154.288431 
C 106.191907 154.584937 106.025308 154.987142 106.025308 155.406465 
C 106.025308 155.825788 106.191907 156.227993 106.488413 156.524499 
C 106.784919 156.821005 107.187124 156.987603 107.606447 156.987603 
z
" clip-path="url(#pe72e949bff)" style="fill: #ff0000; fill-opacity: 0.6; stroke: #ff0000; stroke-opacity: 0.6"/>
    <path d="M 120.009484 151.602351 
C 120.428807 151.602351 120.831012 151.435752 121.127518 151.139246 
C 121.424025 150.84274 121.590623 150.440535 121.590623 150.021212 
C 121.590623 149.601889 121.424025 149.199684 121.127518 148.903178 
C 120.831012 148.606672 120.428807 148.440073 120.009484 148.440073 
C 119.590162 148.440073 119.187957 148.606672 118.89145 148.903178 
C 118.594944 149.199684 118.428346 149.601889 118.428346 150.021212 
C 118.428346 150.440535 118.594944 150.84274 118.89145 151.139246 
C 119.187957 151.435752 119.590162 151.602351 120.009484 151.602351 
z
" clip-path="url(#pe72e949bff)" style="fill: #ff0000; fill-opacity: 0.6; stroke: #ff0000; stroke-opacity: 0.6"/>
    <path d="M 103.818071 153.279725 
C 104.237394 153.279725 104.639599 153.113126 104.936105 152.81662 
C 105.232611 152.520114 105.39921 152.117909 105.39921 151.698586 
C 105.39921 151.279263 105.232611 150.877058 104.936105 150.580552 
C 104.639599 150.284046 104.237394 150.117447 103.818071 150.117447 
C 103.398748 150.117447 102.996543 150.284046 102.700037 150.580552 
C 102.403531 150.877058 102.236932 151.279263 102.236932 151.698586 
C 102.236932 152.117909 102.403531 152.520114 102.700037 152.81662 
C 102.996543 153.113126 103.398748 153.279725 103.818071 153.279725 
z
" clip-path="url(#pe72e949bff)" style="fill: #ff0000; fill-opacity: 0.6; stroke: #ff0000; stroke-opacity: 0.6"/>
    <path d="M 112.692211 144.892856 
C 113.111534 144.892856 113.513739 144.726257 113.810245 144.429751 
C 114.106751 144.133245 114.27335 143.73104 114.27335 143.311717 
C 114.27335 142.892394 114.106751 142.490189 113.810245 142.193683 
C 113.513739 141.897177 113.111534 141.730578 112.692211 141.730578 
C 112.272888 141.730578 111.870683 141.897177 111.574177 142.193683 
C 111.277671 142.490189 111.111072 142.892394 111.111072 143.311717 
C 111.111072 143.73104 111.277671 144.133245 111.574177 144.429751 
C 111.870683 144.726257 112.272888 144.892856 112.692211 144.892856 
z
" clip-path="url(#pe72e949bff)" style="fill: #ff0000; fill-opacity: 0.6; stroke: #ff0000; stroke-opacity: 0.6"/>
    <path d="M 106.309058 146.835078 
C 106.728381 146.835078 107.130586 146.668479 107.427092 146.371973 
C 107.723598 146.075467 107.890197 145.673262 107.890197 145.253939 
C 107.890197 144.834616 107.723598 144.432411 107.427092 144.135905 
C 107.130586 143.839399 106.728381 143.672801 106.309058 143.672801 
C 105.889735 143.672801 105.48753 143.839399 105.191024 144.135905 
C 104.894518 144.432411 104.727919 144.834616 104.727919 145.253939 
C 104.727919 145.673262 104.894518 146.075467 105.191024 146.371973 
C 105.48753 146.668479 105.889735 146.835078 106.309058 146.835078 
z
" clip-path="url(#pe72e949bff)" style="fill: #ff0000; fill-opacity: 0.6; stroke: #ff0000; stroke-opacity: 0.6"/>
    <path d="M 141.857513 140.390432 
C 142.276836 140.390432 142.679041 140.223833 142.975547 139.927327 
C 143.272053 139.630821 143.438652 139.228616 143.438652 138.809293 
C 143.438652 138.38997 143.272053 137.987765 142.975547 137.691259 
C 142.679041 137.394753 142.276836 137.228154 141.857513 137.228154 
C 141.43819 137.228154 141.035985 137.394753 140.739479 137.691259 
C 140.442973 137.987765 140.276375 138.38997 140.276375 138.809293 
C 140.276375 139.228616 140.442973 139.630821 140.739479 139.927327 
C 141.035985 140.223833 141.43819 140.390432 141.857513 140.390432 
z
" clip-path="url(#pe72e949bff)" style="fill: #ff0000; fill-opacity: 0.6; stroke: #ff0000; stroke-opacity: 0.6"/>
    <path d="M 121.92962 148.247603 
C 122.348943 148.247603 122.751148 148.081005 123.047654 147.784499 
C 123.34416 147.487993 123.510759 147.085788 123.510759 146.666465 
C 123.510759 146.247142 123.34416 145.844937 123.047654 145.548431 
C 122.751148 145.251925 122.348943 145.085326 121.92962 145.085326 
C 121.510297 145.085326 121.108092 145.251925 120.811586 145.548431 
C 120.51508 145.844937 120.348481 146.247142 120.348481 146.666465 
C 120.348481 147.085788 120.51508 147.487993 120.811586 147.784499 
C 121.108092 148.081005 121.510297 148.247603 121.92962 148.247603 
z
" clip-path="url(#pe72e949bff)" style="fill: #ff0000; fill-opacity: 0.6; stroke: #ff0000; stroke-opacity: 0.6"/>
    <path d="M 115.702153 147.629624 
C 116.121476 147.629624 116.523681 147.463025 116.820187 147.166519 
C 117.116693 146.870013 117.283292 146.467808 117.283292 146.048485 
C 117.283292 145.629162 117.116693 145.226957 116.820187 144.930451 
C 116.523681 144.633945 116.121476 144.467346 115.702153 144.467346 
C 115.28283 144.467346 114.880625 144.633945 114.584119 144.930451 
C 114.287613 145.226957 114.121015 145.629162 114.121015 146.048485 
C 114.121015 146.467808 114.287613 146.870013 114.584119 147.166519 
C 114.880625 147.463025 115.28283 147.629624 115.702153 147.629624 
z
" clip-path="url(#pe72e949bff)" style="fill: #ff0000; fill-opacity: 0.6; stroke: #ff0000; stroke-opacity: 0.6"/>
    <path d="M 94.37308 146.128816 
C 94.792403 146.128816 95.194608 145.962217 95.491114 145.665711 
C 95.78762 145.369205 95.954219 144.967 95.954219 144.547677 
C 95.954219 144.128354 95.78762 143.726149 95.491114 143.429643 
C 95.194608 143.133137 94.792403 142.966538 94.37308 142.966538 
C 93.953757 142.966538 93.551552 143.133137 93.255046 143.429643 
C 92.95854 143.726149 92.791941 144.128354 92.791941 144.547677 
C 92.791941 144.967 92.95854 145.369205 93.255046 145.665711 
C 93.551552 145.962217 93.953757 146.128816 94.37308 146.128816 
z
" clip-path="url(#pe72e949bff)" style="fill: #ff0000; fill-opacity: 0.6; stroke: #ff0000; stroke-opacity: 0.6"/>
    <path d="M 104.233236 154.07427 
C 104.652558 154.07427 105.054763 153.907671 105.35127 153.611165 
C 105.647776 153.314659 105.814374 152.912454 105.814374 152.493131 
C 105.814374 152.073808 105.647776 151.671603 105.35127 151.375097 
C 105.054763 151.078591 104.652558 150.911992 104.233236 150.911992 
C 103.813913 150.911992 103.411708 151.078591 103.115202 151.375097 
C 102.818695 151.671603 102.652097 152.073808 102.652097 152.493131 
C 102.652097 152.912454 102.818695 153.314659 103.115202 153.611165 
C 103.411708 153.907671 103.813913 154.07427 104.233236 154.07427 
z
" clip-path="url(#pe72e949bff)" style="fill: #ff0000; fill-opacity: 0.6; stroke: #ff0000; stroke-opacity: 0.6"/>
    <path d="M 100.91192 152.485179 
C 101.331243 152.485179 101.733448 152.31858 102.029954 152.022074 
C 102.32646 151.725568 102.493059 151.323363 102.493059 150.90404 
C 102.493059 150.484717 102.32646 150.082512 102.029954 149.786006 
C 101.733448 149.4895 101.331243 149.322902 100.91192 149.322902 
C 100.492597 149.322902 100.090392 149.4895 99.793886 149.786006 
C 99.49738 150.082512 99.330781 150.484717 99.330781 150.90404 
C 99.330781 151.323363 99.49738 151.725568 99.793886 152.022074 
C 100.090392 152.31858 100.492597 152.485179 100.91192 152.485179 
z
" clip-path="url(#pe72e949bff)" style="fill: #ff0000; fill-opacity: 0.6; stroke: #ff0000; stroke-opacity: 0.6"/>
    <path d="M 107.969716 149.306997 
C 108.389038 149.306997 108.791243 149.140399 109.08775 148.843893 
C 109.384256 148.547386 109.550854 148.145182 109.550854 147.725859 
C 109.550854 147.306536 109.384256 146.904331 109.08775 146.607825 
C 108.791243 146.311319 108.389038 146.14472 107.969716 146.14472 
C 107.550393 146.14472 107.148188 146.311319 106.851682 146.607825 
C 106.555175 146.904331 106.388577 147.306536 106.388577 147.725859 
C 106.388577 148.145182 106.555175 148.547386 106.851682 148.843893 
C 107.148188 149.140399 107.550393 149.306997 107.969716 149.306997 
z
" clip-path="url(#pe72e949bff)" style="fill: #ff0000; fill-opacity: 0.6; stroke: #ff0000; stroke-opacity: 0.6"/>
    <path d="M 103.351011 156.811038 
C 103.770334 156.811038 104.172539 156.644439 104.469045 156.347933 
C 104.765551 156.051427 104.93215 155.649222 104.93215 155.229899 
C 104.93215 154.810576 104.765551 154.408371 104.469045 154.111865 
C 104.172539 153.815359 103.770334 153.64876 103.351011 153.64876 
C 102.931688 153.64876 102.529483 153.815359 102.232977 154.111865 
C 101.936471 154.408371 101.769872 154.810576 101.769872 155.229899 
C 101.769872 155.649222 101.936471 156.051427 102.232977 156.347933 
C 102.529483 156.644439 102.931688 156.811038 103.351011 156.811038 
z
" clip-path="url(#pe72e949bff)" style="fill: #ff0000; fill-opacity: 0.6; stroke: #ff0000; stroke-opacity: 0.6"/>
    <path d="M 108.177298 162.637704 
C 108.596621 162.637704 108.998826 162.471106 109.295332 162.1746 
C 109.591838 161.878094 109.758437 161.475889 109.758437 161.056566 
C 109.758437 160.637243 109.591838 160.235038 109.295332 159.938532 
C 108.998826 159.642026 108.596621 159.475427 108.177298 159.475427 
C 107.757975 159.475427 107.35577 159.642026 107.059264 159.938532 
C 106.762758 160.235038 106.596159 160.637243 106.596159 161.056566 
C 106.596159 161.475889 106.762758 161.878094 107.059264 162.1746 
C 107.35577 162.471106 107.757975 162.637704 108.177298 162.637704 
z
" clip-path="url(#pe72e949bff)" style="fill: #ff0000; fill-opacity: 0.6; stroke: #ff0000; stroke-opacity: 0.6"/>
    <path d="M 100.704338 154.07427 
C 101.123661 154.07427 101.525866 153.907671 101.822372 153.611165 
C 102.118878 153.314659 102.285477 152.912454 102.285477 152.493131 
C 102.285477 152.073808 102.118878 151.671603 101.822372 151.375097 
C 101.525866 151.078591 101.123661 150.911992 100.704338 150.911992 
C 100.285015 150.911992 99.88281 151.078591 99.586304 151.375097 
C 99.289798 151.671603 99.123199 152.073808 99.123199 152.493131 
C 99.123199 152.912454 99.289798 153.314659 99.586304 153.611165 
C 99.88281 153.907671 100.285015 154.07427 100.704338 154.07427 
z
" clip-path="url(#pe72e949bff)" style="fill: #ff0000; fill-opacity: 0.6; stroke: #ff0000; stroke-opacity: 0.6"/>
    <path d="M 97.590604 151.778917 
C 98.009927 151.778917 98.412132 151.612318 98.708638 151.315812 
C 99.005145 151.019306 99.171743 150.617101 99.171743 150.197778 
C 99.171743 149.778455 99.005145 149.37625 98.708638 149.079744 
C 98.412132 148.783238 98.009927 148.616639 97.590604 148.616639 
C 97.171282 148.616639 96.769077 148.783238 96.47257 149.079744 
C 96.176064 149.37625 96.009466 149.778455 96.009466 150.197778 
C 96.009466 150.617101 96.176064 151.019306 96.47257 151.315812 
C 96.769077 151.612318 97.171282 151.778917 97.590604 151.778917 
z
" clip-path="url(#pe72e949bff)" style="fill: #ff0000; fill-opacity: 0.6; stroke: #ff0000; stroke-opacity: 0.6"/>
    <path d="M 106.153371 156.546189 
C 106.572694 156.546189 106.974899 156.379591 107.271405 156.083084 
C 107.567911 155.786578 107.73451 155.384373 107.73451 154.965051 
C 107.73451 154.545728 107.567911 154.143523 107.271405 153.847017 
C 106.974899 153.55051 106.572694 153.383912 106.153371 153.383912 
C 105.734048 153.383912 105.331843 153.55051 105.035337 153.847017 
C 104.738831 154.143523 104.572232 154.545728 104.572232 154.965051 
C 104.572232 155.384373 104.738831 155.786578 105.035337 156.083084 
C 105.331843 156.379591 105.734048 156.546189 106.153371 156.546189 
z
" clip-path="url(#pe72e949bff)" style="fill: #ff0000; fill-opacity: 0.6; stroke: #ff0000; stroke-opacity: 0.6"/>
    <path d="M 127.119176 147.364775 
C 127.538498 147.364775 127.940703 147.198176 128.23721 146.90167 
C 128.533716 146.605164 128.700314 146.202959 128.700314 145.783636 
C 128.700314 145.364313 128.533716 144.962108 128.23721 144.665602 
C 127.940703 144.369096 127.538498 144.202498 127.119176 144.202498 
C 126.699853 144.202498 126.297648 144.369096 126.001142 144.665602 
C 125.704635 144.962108 125.538037 145.364313 125.538037 145.783636 
C 125.538037 146.202959 125.704635 146.605164 126.001142 146.90167 
C 126.297648 147.198176 126.699853 147.364775 127.119176 147.364775 
z
" clip-path="url(#pe72e949bff)" style="fill: #ff0000; fill-opacity: 0.6; stroke: #ff0000; stroke-opacity: 0.6"/>
   </g>
   <g id="matplotlib.axis_1">
    <g id="xtick_1">
     <g id="line2d_1">
      <defs>
       <path id="me9f1b684a2" d="M 0 0 
L 0 3.5 
" style="stroke: #000000; stroke-width: 0.8"/>
      </defs>
      <g>
       <use xlink:href="#me9f1b684a2" x="39.26" y="178.36" style="stroke: #000000; stroke-width: 0.8"/>
      </g>
     </g>
     <g id="text_1">
      <!-- 35 -->
      <g transform="translate(34.80625 190.678906) scale(0.07 -0.07)">
       <defs>
        <path id="DejaVuSans-33" d="M 2597 2516 
Q 3050 2419 3304 2112 
Q 3559 1806 3559 1356 
Q 3559 666 3084 287 
Q 2609 -91 1734 -91 
Q 1441 -91 1130 -33 
Q 819 25 488 141 
L 488 750 
Q 750 597 1062 519 
Q 1375 441 1716 441 
Q 2309 441 2620 675 
Q 2931 909 2931 1356 
Q 2931 1769 2642 2001 
Q 2353 2234 1838 2234 
L 1294 2234 
L 1294 2753 
L 1863 2753 
Q 2328 2753 2575 2939 
Q 2822 3125 2822 3475 
Q 2822 3834 2567 4026 
Q 2313 4219 1838 4219 
Q 1578 4219 1281 4162 
Q 984 4106 628 3988 
L 628 4550 
Q 988 4650 1302 4700 
Q 1616 4750 1894 4750 
Q 2613 4750 3031 4423 
Q 3450 4097 3450 3541 
Q 3450 3153 3228 2886 
Q 3006 2619 2597 2516 
z
" transform="scale(0.015625)"/>
        <path id="DejaVuSans-35" d="M 691 4666 
L 3169 4666 
L 3169 4134 
L 1269 4134 
L 1269 2991 
Q 1406 3038 1543 3061 
Q 1681 3084 1819 3084 
Q 2600 3084 3056 2656 
Q 3513 2228 3513 1497 
Q 3513 744 3044 326 
Q 2575 -91 1722 -91 
Q 1428 -91 1123 -41 
Q 819 9 494 109 
L 494 744 
Q 775 591 1075 516 
Q 1375 441 1709 441 
Q 2250 441 2565 725 
Q 2881 1009 2881 1497 
Q 2881 1984 2565 2268 
Q 2250 2553 1709 2553 
Q 1456 2553 1204 2497 
Q 953 2441 691 2322 
L 691 4666 
z
" transform="scale(0.015625)"/>
       </defs>
       <use xlink:href="#DejaVuSans-33"/>
       <use xlink:href="#DejaVuSans-35" x="63.623047"/>
      </g>
     </g>
    </g>
    <g id="xtick_2">
     <g id="line2d_2">
      <g>
       <use xlink:href="#me9f1b684a2" x="65.207778" y="178.36" style="stroke: #000000; stroke-width: 0.8"/>
      </g>
     </g>
     <g id="text_2">
      <!-- 40 -->
      <g transform="translate(60.754028 190.678906) scale(0.07 -0.07)">
       <defs>
        <path id="DejaVuSans-34" d="M 2419 4116 
L 825 1625 
L 2419 1625 
L 2419 4116 
z
M 2253 4666 
L 3047 4666 
L 3047 1625 
L 3713 1625 
L 3713 1100 
L 3047 1100 
L 3047 0 
L 2419 0 
L 2419 1100 
L 313 1100 
L 313 1709 
L 2253 4666 
z
" transform="scale(0.015625)"/>
        <path id="DejaVuSans-30" d="M 2034 4250 
Q 1547 4250 1301 3770 
Q 1056 3291 1056 2328 
Q 1056 1369 1301 889 
Q 1547 409 2034 409 
Q 2525 409 2770 889 
Q 3016 1369 3016 2328 
Q 3016 3291 2770 3770 
Q 2525 4250 2034 4250 
z
M 2034 4750 
Q 2819 4750 3233 4129 
Q 3647 3509 3647 2328 
Q 3647 1150 3233 529 
Q 2819 -91 2034 -91 
Q 1250 -91 836 529 
Q 422 1150 422 2328 
Q 422 3509 836 4129 
Q 1250 4750 2034 4750 
z
" transform="scale(0.015625)"/>
       </defs>
       <use xlink:href="#DejaVuSans-34"/>
       <use xlink:href="#DejaVuSans-30" x="63.623047"/>
      </g>
     </g>
    </g>
    <g id="xtick_3">
     <g id="line2d_3">
      <g>
       <use xlink:href="#me9f1b684a2" x="91.155556" y="178.36" style="stroke: #000000; stroke-width: 0.8"/>
      </g>
     </g>
     <g id="text_3">
      <!-- 45 -->
      <g transform="translate(86.701806 190.678906) scale(0.07 -0.07)">
       <use xlink:href="#DejaVuSans-34"/>
       <use xlink:href="#DejaVuSans-35" x="63.623047"/>
      </g>
     </g>
    </g>
    <g id="xtick_4">
     <g id="line2d_4">
      <g>
       <use xlink:href="#me9f1b684a2" x="117.103333" y="178.36" style="stroke: #000000; stroke-width: 0.8"/>
      </g>
     </g>
     <g id="text_4">
      <!-- 50 -->
      <g transform="translate(112.649583 190.678906) scale(0.07 -0.07)">
       <use xlink:href="#DejaVuSans-35"/>
       <use xlink:href="#DejaVuSans-30" x="63.623047"/>
      </g>
     </g>
    </g>
    <g id="xtick_5">
     <g id="line2d_5">
      <g>
       <use xlink:href="#me9f1b684a2" x="143.051111" y="178.36" style="stroke: #000000; stroke-width: 0.8"/>
      </g>
     </g>
     <g id="text_5">
      <!-- 55 -->
      <g transform="translate(138.597361 190.678906) scale(0.07 -0.07)">
       <use xlink:href="#DejaVuSans-35"/>
       <use xlink:href="#DejaVuSans-35" x="63.623047"/>
      </g>
     </g>
    </g>
    <g id="xtick_6">
     <g id="line2d_6">
      <g>
       <use xlink:href="#me9f1b684a2" x="168.998889" y="178.36" style="stroke: #000000; stroke-width: 0.8"/>
      </g>
     </g>
     <g id="text_6">
      <!-- 60 -->
      <g transform="translate(164.545139 190.678906) scale(0.07 -0.07)">
       <defs>
        <path id="DejaVuSans-36" d="M 2113 2584 
Q 1688 2584 1439 2293 
Q 1191 2003 1191 1497 
Q 1191 994 1439 701 
Q 1688 409 2113 409 
Q 2538 409 2786 701 
Q 3034 994 3034 1497 
Q 3034 2003 2786 2293 
Q 2538 2584 2113 2584 
z
M 3366 4563 
L 3366 3988 
Q 3128 4100 2886 4159 
Q 2644 4219 2406 4219 
Q 1781 4219 1451 3797 
Q 1122 3375 1075 2522 
Q 1259 2794 1537 2939 
Q 1816 3084 2150 3084 
Q 2853 3084 3261 2657 
Q 3669 2231 3669 1497 
Q 3669 778 3244 343 
Q 2819 -91 2113 -91 
Q 1303 -91 875 529 
Q 447 1150 447 2328 
Q 447 3434 972 4092 
Q 1497 4750 2381 4750 
Q 2619 4750 2861 4703 
Q 3103 4656 3366 4563 
z
" transform="scale(0.015625)"/>
       </defs>
       <use xlink:href="#DejaVuSans-36"/>
       <use xlink:href="#DejaVuSans-30" x="63.623047"/>
      </g>
     </g>
    </g>
    <g id="xtick_7">
     <g id="line2d_7">
      <g>
       <use xlink:href="#me9f1b684a2" x="194.946667" y="178.36" style="stroke: #000000; stroke-width: 0.8"/>
      </g>
     </g>
     <g id="text_7">
      <!-- 65 -->
      <g transform="translate(190.492917 190.678906) scale(0.07 -0.07)">
       <use xlink:href="#DejaVuSans-36"/>
       <use xlink:href="#DejaVuSans-35" x="63.623047"/>
      </g>
     </g>
    </g>
    <g id="xtick_8">
     <g id="line2d_8">
      <g>
       <use xlink:href="#me9f1b684a2" x="220.894444" y="178.36" style="stroke: #000000; stroke-width: 0.8"/>
      </g>
     </g>
     <g id="text_8">
      <!-- 70 -->
      <g transform="translate(216.440694 190.678906) scale(0.07 -0.07)">
       <defs>
        <path id="DejaVuSans-37" d="M 525 4666 
L 3525 4666 
L 3525 4397 
L 1831 0 
L 1172 0 
L 2766 4134 
L 525 4134 
L 525 4666 
z
" transform="scale(0.015625)"/>
       </defs>
       <use xlink:href="#DejaVuSans-37"/>
       <use xlink:href="#DejaVuSans-30" x="63.623047"/>
      </g>
     </g>
    </g>
    <g id="xtick_9">
     <g id="line2d_9">
      <g>
       <use xlink:href="#me9f1b684a2" x="246.842222" y="178.36" style="stroke: #000000; stroke-width: 0.8"/>
      </g>
     </g>
     <g id="text_9">
      <!-- 75 -->
      <g transform="translate(242.388472 190.678906) scale(0.07 -0.07)">
       <use xlink:href="#DejaVuSans-37"/>
       <use xlink:href="#DejaVuSans-35" x="63.623047"/>
      </g>
     </g>
    </g>
    <g id="xtick_10">
     <g id="line2d_10">
      <g>
       <use xlink:href="#me9f1b684a2" x="272.79" y="178.36" style="stroke: #000000; stroke-width: 0.8"/>
      </g>
     </g>
     <g id="text_10">
      <!-- 80 -->
      <g transform="translate(268.33625 190.678906) scale(0.07 -0.07)">
       <defs>
        <path id="DejaVuSans-38" d="M 2034 2216 
Q 1584 2216 1326 1975 
Q 1069 1734 1069 1313 
Q 1069 891 1326 650 
Q 1584 409 2034 409 
Q 2484 409 2743 651 
Q 3003 894 3003 1313 
Q 3003 1734 2745 1975 
Q 2488 2216 2034 2216 
z
M 1403 2484 
Q 997 2584 770 2862 
Q 544 3141 544 3541 
Q 544 4100 942 4425 
Q 1341 4750 2034 4750 
Q 2731 4750 3128 4425 
Q 3525 4100 3525 3541 
Q 3525 3141 3298 2862 
Q 3072 2584 2669 2484 
Q 3125 2378 3379 2068 
Q 3634 1759 3634 1313 
Q 3634 634 3220 271 
Q 2806 -91 2034 -91 
Q 1263 -91 848 271 
Q 434 634 434 1313 
Q 434 1759 690 2068 
Q 947 2378 1403 2484 
z
M 1172 3481 
Q 1172 3119 1398 2916 
Q 1625 2713 2034 2713 
Q 2441 2713 2670 2916 
Q 2900 3119 2900 3481 
Q 2900 3844 2670 4047 
Q 2441 4250 2034 4250 
Q 1625 4250 1398 4047 
Q 1172 3844 1172 3481 
z
" transform="scale(0.015625)"/>
       </defs>
       <use xlink:href="#DejaVuSans-38"/>
       <use xlink:href="#DejaVuSans-30" x="63.623047"/>
      </g>
     </g>
    </g>
    <g id="text_11">
     <!-- $SiO2$ -->
     <g transform="translate(147.835 201.453594) scale(0.07 -0.07)">
      <defs>
       <path id="DejaVuSans-Oblique-53" d="M 3859 4513 
L 3738 3897 
Q 3422 4066 3111 4152 
Q 2800 4238 2509 4238 
Q 1944 4238 1609 3991 
Q 1275 3744 1275 3334 
Q 1275 3109 1398 2989 
Q 1522 2869 2034 2731 
L 2413 2638 
Q 3053 2472 3303 2217 
Q 3553 1963 3553 1503 
Q 3553 797 2998 353 
Q 2444 -91 1538 -91 
Q 1166 -91 791 -17 
Q 416 56 38 206 
L 166 856 
Q 513 641 861 531 
Q 1209 422 1556 422 
Q 2147 422 2503 684 
Q 2859 947 2859 1369 
Q 2859 1650 2717 1795 
Q 2575 1941 2106 2059 
L 1728 2156 
Q 1081 2325 845 2545 
Q 609 2766 609 3163 
Q 609 3859 1145 4304 
Q 1681 4750 2541 4750 
Q 2875 4750 3203 4690 
Q 3531 4631 3859 4513 
z
" transform="scale(0.015625)"/>
       <path id="DejaVuSans-Oblique-69" d="M 1172 4863 
L 1747 4863 
L 1606 4134 
L 1031 4134 
L 1172 4863 
z
M 909 3500 
L 1484 3500 
L 800 0 
L 225 0 
L 909 3500 
z
" transform="scale(0.015625)"/>
       <path id="DejaVuSans-Oblique-4f" d="M 2919 4238 
Q 2400 4238 2003 3986 
Q 1606 3734 1313 3219 
Q 1125 2891 1026 2522 
Q 928 2153 928 1778 
Q 928 1128 1239 775 
Q 1550 422 2119 422 
Q 2631 422 3032 676 
Q 3434 931 3719 1434 
Q 3909 1772 4009 2142 
Q 4109 2513 4109 2881 
Q 4109 3528 3796 3883 
Q 3484 4238 2919 4238 
z
M 2100 -91 
Q 1241 -91 748 418 
Q 256 928 256 1813 
Q 256 2319 448 2847 
Q 641 3375 978 3788 
Q 1375 4272 1862 4511 
Q 2350 4750 2938 4750 
Q 3794 4750 4287 4245 
Q 4781 3741 4781 2869 
Q 4781 2331 4593 1812 
Q 4406 1294 4056 872 
Q 3656 384 3173 146 
Q 2691 -91 2100 -91 
z
" transform="scale(0.015625)"/>
       <path id="DejaVuSans-32" d="M 1228 531 
L 3431 531 
L 3431 0 
L 469 0 
L 469 531 
Q 828 903 1448 1529 
Q 2069 2156 2228 2338 
Q 2531 2678 2651 2914 
Q 2772 3150 2772 3378 
Q 2772 3750 2511 3984 
Q 2250 4219 1831 4219 
Q 1534 4219 1204 4116 
Q 875 4013 500 3803 
L 500 4441 
Q 881 4594 1212 4672 
Q 1544 4750 1819 4750 
Q 2544 4750 2975 4387 
Q 3406 4025 3406 3419 
Q 3406 3131 3298 2873 
Q 3191 2616 2906 2266 
Q 2828 2175 2409 1742 
Q 1991 1309 1228 531 
z
" transform="scale(0.015625)"/>
      </defs>
      <use xlink:href="#DejaVuSans-Oblique-53" transform="translate(0 0.015625)"/>
      <use xlink:href="#DejaVuSans-Oblique-69" transform="translate(63.476562 0.015625)"/>
      <use xlink:href="#DejaVuSans-Oblique-4f" transform="translate(91.259766 0.015625)"/>
      <use xlink:href="#DejaVuSans-32" transform="translate(169.970703 0.015625)"/>
     </g>
    </g>
   </g>
   <g id="matplotlib.axis_2">
    <g id="ytick_1">
     <g id="line2d_11">
      <defs>
       <path id="m1f60d1f7bd" d="M 0 0 
L -3.5 0 
" style="stroke: #000000; stroke-width: 0.8"/>
      </defs>
      <g>
       <use xlink:href="#m1f60d1f7bd" x="39.26" y="178.36" style="stroke: #000000; stroke-width: 0.8"/>
      </g>
     </g>
     <g id="text_12">
      <!-- 0 -->
      <g transform="translate(27.80625 181.019453) scale(0.07 -0.07)">
       <use xlink:href="#DejaVuSans-30"/>
      </g>
     </g>
    </g>
    <g id="ytick_2">
     <g id="line2d_12">
      <g>
       <use xlink:href="#m1f60d1f7bd" x="39.26" y="160.703434" style="stroke: #000000; stroke-width: 0.8"/>
      </g>
     </g>
     <g id="text_13">
      <!-- 2 -->
      <g transform="translate(27.80625 163.362887) scale(0.07 -0.07)">
       <use xlink:href="#DejaVuSans-32"/>
      </g>
     </g>
    </g>
    <g id="ytick_3">
     <g id="line2d_13">
      <g>
       <use xlink:href="#m1f60d1f7bd" x="39.26" y="143.046869" style="stroke: #000000; stroke-width: 0.8"/>
      </g>
     </g>
     <g id="text_14">
      <!-- 4 -->
      <g transform="translate(27.80625 145.706322) scale(0.07 -0.07)">
       <use xlink:href="#DejaVuSans-34"/>
      </g>
     </g>
    </g>
    <g id="ytick_4">
     <g id="line2d_14">
      <g>
       <use xlink:href="#m1f60d1f7bd" x="39.26" y="125.390303" style="stroke: #000000; stroke-width: 0.8"/>
      </g>
     </g>
     <g id="text_15">
      <!-- 6 -->
      <g transform="translate(27.80625 128.049756) scale(0.07 -0.07)">
       <use xlink:href="#DejaVuSans-36"/>
      </g>
     </g>
    </g>
    <g id="ytick_5">
     <g id="line2d_15">
      <g>
       <use xlink:href="#m1f60d1f7bd" x="39.26" y="107.733737" style="stroke: #000000; stroke-width: 0.8"/>
      </g>
     </g>
     <g id="text_16">
      <!-- 8 -->
      <g transform="translate(27.80625 110.39319) scale(0.07 -0.07)">
       <use xlink:href="#DejaVuSans-38"/>
      </g>
     </g>
    </g>
    <g id="ytick_6">
     <g id="line2d_16">
      <g>
       <use xlink:href="#m1f60d1f7bd" x="39.26" y="90.077172" style="stroke: #000000; stroke-width: 0.8"/>
      </g>
     </g>
     <g id="text_17">
      <!-- 10 -->
      <g transform="translate(23.3525 92.736625) scale(0.07 -0.07)">
       <defs>
        <path id="DejaVuSans-31" d="M 794 531 
L 1825 531 
L 1825 4091 
L 703 3866 
L 703 4441 
L 1819 4666 
L 2450 4666 
L 2450 531 
L 3481 531 
L 3481 0 
L 794 0 
L 794 531 
z
" transform="scale(0.015625)"/>
       </defs>
       <use xlink:href="#DejaVuSans-31"/>
       <use xlink:href="#DejaVuSans-30" x="63.623047"/>
      </g>
     </g>
    </g>
    <g id="ytick_7">
     <g id="line2d_17">
      <g>
       <use xlink:href="#m1f60d1f7bd" x="39.26" y="72.420606" style="stroke: #000000; stroke-width: 0.8"/>
      </g>
     </g>
     <g id="text_18">
      <!-- 12 -->
      <g transform="translate(23.3525 75.080059) scale(0.07 -0.07)">
       <use xlink:href="#DejaVuSans-31"/>
       <use xlink:href="#DejaVuSans-32" x="63.623047"/>
      </g>
     </g>
    </g>
    <g id="ytick_8">
     <g id="line2d_18">
      <g>
       <use xlink:href="#m1f60d1f7bd" x="39.26" y="54.76404" style="stroke: #000000; stroke-width: 0.8"/>
      </g>
     </g>
     <g id="text_19">
      <!-- 14 -->
      <g transform="translate(23.3525 57.423494) scale(0.07 -0.07)">
       <use xlink:href="#DejaVuSans-31"/>
       <use xlink:href="#DejaVuSans-34" x="63.623047"/>
      </g>
     </g>
    </g>
    <g id="ytick_9">
     <g id="line2d_19">
      <g>
       <use xlink:href="#m1f60d1f7bd" x="39.26" y="37.107475" style="stroke: #000000; stroke-width: 0.8"/>
      </g>
     </g>
     <g id="text_20">
      <!-- 16 -->
      <g transform="translate(23.3525 39.766928) scale(0.07 -0.07)">
       <use xlink:href="#DejaVuSans-31"/>
       <use xlink:href="#DejaVuSans-36" x="63.623047"/>
      </g>
     </g>
    </g>
    <g id="text_21">
     <!-- $Na2O+K2O$ -->
     <g transform="translate(17.896719 121.81) rotate(-90) scale(0.07 -0.07)">
      <defs>
       <path id="DejaVuSans-Oblique-4e" d="M 1081 4666 
L 1931 4666 
L 3219 666 
L 4000 4666 
L 4616 4666 
L 3706 0 
L 2853 0 
L 1569 4025 
L 788 0 
L 172 0 
L 1081 4666 
z
" transform="scale(0.015625)"/>
       <path id="DejaVuSans-Oblique-61" d="M 3438 1997 
L 3047 0 
L 2472 0 
L 2578 531 
Q 2325 219 2001 64 
Q 1678 -91 1281 -91 
Q 834 -91 548 182 
Q 263 456 263 884 
Q 263 1497 752 1853 
Q 1241 2209 2100 2209 
L 2900 2209 
L 2931 2363 
Q 2938 2388 2941 2417 
Q 2944 2447 2944 2509 
Q 2944 2788 2717 2942 
Q 2491 3097 2081 3097 
Q 1800 3097 1504 3025 
Q 1209 2953 897 2809 
L 997 3341 
Q 1322 3463 1633 3523 
Q 1944 3584 2234 3584 
Q 2853 3584 3176 3315 
Q 3500 3047 3500 2534 
Q 3500 2431 3484 2292 
Q 3469 2153 3438 1997 
z
M 2816 1759 
L 2241 1759 
Q 1534 1759 1195 1570 
Q 856 1381 856 984 
Q 856 709 1029 553 
Q 1203 397 1509 397 
Q 1978 397 2328 733 
Q 2678 1069 2791 1631 
L 2816 1759 
z
" transform="scale(0.015625)"/>
       <path id="DejaVuSans-2b" d="M 2944 4013 
L 2944 2272 
L 4684 2272 
L 4684 1741 
L 2944 1741 
L 2944 0 
L 2419 0 
L 2419 1741 
L 678 1741 
L 678 2272 
L 2419 2272 
L 2419 4013 
L 2944 4013 
z
" transform="scale(0.015625)"/>
       <path id="DejaVuSans-Oblique-4b" d="M 1081 4666 
L 1716 4666 
L 1331 2700 
L 3781 4666 
L 4622 4666 
L 1850 2438 
L 3878 0 
L 3109 0 
L 1247 2272 
L 806 0 
L 172 0 
L 1081 4666 
z
" transform="scale(0.015625)"/>
      </defs>
      <use xlink:href="#DejaVuSans-Oblique-4e" transform="translate(0 0.78125)"/>
      <use xlink:href="#DejaVuSans-Oblique-61" transform="translate(74.804688 0.78125)"/>
      <use xlink:href="#DejaVuSans-32" transform="translate(136.083984 0.78125)"/>
      <use xlink:href="#DejaVuSans-Oblique-4f" transform="translate(199.707031 0.78125)"/>
      <use xlink:href="#DejaVuSans-2b" transform="translate(297.900391 0.78125)"/>
      <use xlink:href="#DejaVuSans-Oblique-4b" transform="translate(401.171875 0.78125)"/>
      <use xlink:href="#DejaVuSans-32" transform="translate(466.748047 0.78125)"/>
      <use xlink:href="#DejaVuSans-Oblique-4f" transform="translate(530.371094 0.78125)"/>
     </g>
    </g>
   </g>
   <g id="line2d_20">
    <path d="M 70.397333 178.36 
L 70.397333 116.56202 
L 91.155556 95.374141 
L 108.800044 76.834747 
L 130.077222 54.76404 
L 111.913778 40.829202 
L 88.100683 22.56 
L 39.26 22.56 
L 39.26 178.36 
" clip-path="url(#pe72e949bff)" style="fill: none; stroke: #000000; stroke-width: 0.3; stroke-linecap: square"/>
   </g>
   <g id="line2d_21">
    <path d="M 70.397333 178.36 
L 70.397333 151.875152 
L 91.155556 151.875152 
L 91.155556 178.36 
" clip-path="url(#pe72e949bff)" style="fill: none; stroke: #000000; stroke-width: 0.3; stroke-linecap: square"/>
   </g>
   <g id="line2d_22">
    <path d="M 70.397333 151.875152 
L 70.397333 116.56202 
L 91.155556 95.374141 
L 113.9896 113.913535 
L 91.155556 134.218586 
L 91.155556 151.875152 
" clip-path="url(#pe72e949bff)" style="fill: none; stroke: #000000; stroke-width: 0.3; stroke-linecap: square"/>
   </g>
   <g id="line2d_23">
    <path d="M 91.155556 178.36 
L 91.155556 151.875152 
L 91.155556 134.218586 
L 127.482444 134.218586 
L 127.482444 178.36 
" clip-path="url(#pe72e949bff)" style="fill: none; stroke: #000000; stroke-width: 0.3; stroke-linecap: square"/>
   </g>
   <g id="line2d_24">
    <path d="M 91.155556 134.218586 
L 113.9896 113.913535 
L 127.482444 134.218586 
" clip-path="url(#pe72e949bff)" style="fill: none; stroke: #000000; stroke-width: 0.3; stroke-linecap: square"/>
   </g>
   <g id="line2d_25">
    <path d="M 91.155556 95.374141 
L 108.800044 76.834747 
L 132.672 96.25697 
L 113.9896 113.913535 
" clip-path="url(#pe72e949bff)" style="fill: none; stroke: #000000; stroke-width: 0.3; stroke-linecap: square"/>
   </g>
   <g id="line2d_26">
    <path d="M 127.482444 178.36 
L 127.482444 134.218586 
L 153.430222 126.273131 
L 153.430222 178.36 
" clip-path="url(#pe72e949bff)" style="fill: none; stroke: #000000; stroke-width: 0.3; stroke-linecap: square"/>
   </g>
   <g id="line2d_27">
    <path d="M 113.9896 113.913535 
L 132.672 96.25697 
L 153.430222 126.273131 
L 127.482444 134.218586 
" clip-path="url(#pe72e949bff)" style="fill: none; stroke: #000000; stroke-width: 0.3; stroke-linecap: square"/>
   </g>
   <g id="line2d_28">
    <path d="M 108.800044 76.834747 
L 130.077222 54.76404 
L 156.543956 75.069091 
L 132.672 96.25697 
" clip-path="url(#pe72e949bff)" style="fill: none; stroke: #000000; stroke-width: 0.3; stroke-linecap: square"/>
   </g>
   <g id="line2d_29">
    <path d="M 153.430222 178.36 
L 153.430222 126.273131 
L 184.567556 116.56202 
L 184.567556 178.36 
" clip-path="url(#pe72e949bff)" style="fill: none; stroke: #000000; stroke-width: 0.3; stroke-linecap: square"/>
   </g>
   <g id="line2d_30">
    <path d="M 132.672 96.25697 
L 156.543956 75.069091 
L 184.567556 116.56202 
L 153.430222 126.273131 
" clip-path="url(#pe72e949bff)" style="fill: none; stroke: #000000; stroke-width: 0.3; stroke-linecap: square"/>
   </g>
   <g id="line2d_31">
    <path d="M 88.100683 22.56 
L 130.077222 54.76404 
L 156.543956 75.069091 
L 174.188444 59.178182 
L 215.704889 22.56 
" clip-path="url(#pe72e949bff)" style="fill: none; stroke: #000000; stroke-width: 0.3; stroke-linecap: square"/>
   </g>
   <g id="line2d_32">
    <path d="M 184.567556 178.36 
L 184.567556 116.56202 
L 215.704889 107.733737 
L 258.7782 178.36 
" clip-path="url(#pe72e949bff)" style="fill: none; stroke: #000000; stroke-width: 0.3; stroke-linecap: square"/>
   </g>
   <g id="line2d_33">
    <path d="M 215.704889 22.56 
L 174.188444 59.178182 
L 156.543956 75.069091 
L 184.567556 116.56202 
L 215.704889 107.733737 
L 215.704889 63.592323 
L 215.704889 22.56 
" clip-path="url(#pe72e949bff)" style="fill: none; stroke: #000000; stroke-width: 0.3; stroke-linecap: square"/>
   </g>
   <g id="line2d_34">
    <path d="M 215.704889 22.56 
L 215.704889 63.592323 
L 215.704889 107.733737 
L 258.7782 178.36 
L 272.79 178.36 
L 272.79 22.56 
" clip-path="url(#pe72e949bff)" style="fill: none; stroke: #000000; stroke-width: 0.3; stroke-linecap: square"/>
   </g>
   <g id="patch_3">
    <path d="M 39.26 178.36 
L 39.26 22.56 
" style="fill: none; stroke: #000000; stroke-width: 0.8; stroke-linejoin: miter; stroke-linecap: square"/>
   </g>
   <g id="patch_4">
    <path d="M 272.79 178.36 
L 272.79 22.56 
" style="fill: none; stroke: #000000; stroke-width: 0.8; stroke-linejoin: miter; stroke-linecap: square"/>
   </g>
   <g id="patch_5">
    <path d="M 39.26 178.36 
L 272.79 178.36 
" style="fill: none; stroke: #000000; stroke-width: 0.8; stroke-linejoin: miter; stroke-linecap: square"/>
   </g>
   <g id="patch_6">
    <path d="M 39.26 22.56 
L 272.79 22.56 
" style="fill: none; stroke: #000000; stroke-width: 0.8; stroke-linejoin: miter; stroke-linecap: square"/>
   </g>
   <g id="text_22">
    <g id="patch_7">
     <path d="M 77.259392 94.733361 
L 89.265486 94.733361 
L 89.265486 79.978673 
L 77.259392 79.978673 
z
" style="fill: #ffffff; opacity: 0.3; stroke: #000000; stroke-linejoin: miter"/>
    </g>
    <!-- F -->
    <g transform="translate(81.249392 89.287579) scale(0.07 -0.07)">
     <defs>
      <path id="DejaVuSans-46" d="M 628 4666 
L 3309 4666 
L 3309 4134 
L 1259 4134 
L 1259 2759 
L 3109 2759 
L 3109 2228 
L 1259 2228 
L 1259 0 
L 628 0 
L 628 4666 
z
" transform="scale(0.015625)"/>
     </defs>
     <use xlink:href="#DejaVuSans-46"/>
    </g>
   </g>
   <g id="text_23">
    <g id="patch_8">
     <path d="M 72.751601 172.49492 
L 88.801288 172.49492 
L 88.801288 157.740232 
L 72.751601 157.740232 
z
" style="fill: #ffffff; opacity: 0.3; stroke: #000000; stroke-linejoin: miter"/>
    </g>
    <!-- Pc -->
    <g transform="translate(76.741601 167.049138) scale(0.07 -0.07)">
     <defs>
      <path id="DejaVuSans-50" d="M 1259 4147 
L 1259 2394 
L 2053 2394 
Q 2494 2394 2734 2622 
Q 2975 2850 2975 3272 
Q 2975 3691 2734 3919 
Q 2494 4147 2053 4147 
L 1259 4147 
z
M 628 4666 
L 2053 4666 
Q 2838 4666 3239 4311 
Q 3641 3956 3641 3272 
Q 3641 2581 3239 2228 
Q 2838 1875 2053 1875 
L 1259 1875 
L 1259 0 
L 628 0 
L 628 4666 
z
" transform="scale(0.015625)"/>
      <path id="DejaVuSans-63" d="M 3122 3366 
L 3122 2828 
Q 2878 2963 2633 3030 
Q 2388 3097 2138 3097 
Q 1578 3097 1268 2742 
Q 959 2388 959 1747 
Q 959 1106 1268 751 
Q 1578 397 2138 397 
Q 2388 397 2633 464 
Q 2878 531 3122 666 
L 3122 134 
Q 2881 22 2623 -34 
Q 2366 -91 2075 -91 
Q 1284 -91 818 406 
Q 353 903 353 1747 
Q 353 2603 823 3093 
Q 1294 3584 2113 3584 
Q 2378 3584 2631 3529 
Q 2884 3475 3122 3366 
z
" transform="scale(0.015625)"/>
     </defs>
     <use xlink:href="#DejaVuSans-50"/>
     <use xlink:href="#DejaVuSans-63" x="60.302734"/>
    </g>
   </g>
   <g id="text_24">
    <g id="patch_9">
     <path d="M 79.263385 134.680441 
L 96.82026 134.680441 
L 96.82026 119.925754 
L 79.263385 119.925754 
z
" style="fill: #ffffff; opacity: 0.3; stroke: #000000; stroke-linejoin: miter"/>
    </g>
    <!-- U1 -->
    <g transform="translate(83.253385 129.23466) scale(0.07 -0.07)">
     <defs>
      <path id="DejaVuSans-55" d="M 556 4666 
L 1191 4666 
L 1191 1831 
Q 1191 1081 1462 751 
Q 1734 422 2344 422 
Q 2950 422 3222 751 
Q 3494 1081 3494 1831 
L 3494 4666 
L 4128 4666 
L 4128 1753 
Q 4128 841 3676 375 
Q 3225 -91 2344 -91 
Q 1459 -91 1007 375 
Q 556 841 556 1753 
L 556 4666 
z
" transform="scale(0.015625)"/>
     </defs>
     <use xlink:href="#DejaVuSans-55"/>
     <use xlink:href="#DejaVuSans-31" x="73.193359"/>
    </g>
   </g>
   <g id="text_25">
    <g id="patch_10">
     <path d="M 99.294983 162.783808 
L 112.077639 162.783808 
L 112.077639 148.029121 
L 99.294983 148.029121 
z
" style="fill: #ffffff; opacity: 0.3; stroke: #000000; stroke-linejoin: miter"/>
    </g>
    <!-- B -->
    <g transform="translate(103.284983 157.338027) scale(0.07 -0.07)">
     <defs>
      <path id="DejaVuSans-42" d="M 1259 2228 
L 1259 519 
L 2272 519 
Q 2781 519 3026 730 
Q 3272 941 3272 1375 
Q 3272 1813 3026 2020 
Q 2781 2228 2272 2228 
L 1259 2228 
z
M 1259 4147 
L 1259 2741 
L 2194 2741 
Q 2656 2741 2882 2914 
Q 3109 3088 3109 3444 
Q 3109 3797 2882 3972 
Q 2656 4147 2194 4147 
L 1259 4147 
z
M 628 4666 
L 2241 4666 
Q 2963 4666 3353 4366 
Q 3744 4066 3744 3513 
Q 3744 3084 3544 2831 
Q 3344 2578 2956 2516 
Q 3422 2416 3680 2098 
Q 3938 1781 3938 1306 
Q 3938 681 3513 340 
Q 3088 0 2303 0 
L 628 0 
L 628 4666 
z
" transform="scale(0.015625)"/>
     </defs>
     <use xlink:href="#DejaVuSans-42"/>
    </g>
   </g>
   <g id="text_26">
    <g id="patch_11">
     <path d="M 102.437039 134.827579 
L 119.314695 134.827579 
L 119.314695 120.072892 
L 102.437039 120.072892 
z
" style="fill: #ffffff; opacity: 0.3; stroke: #000000; stroke-linejoin: miter"/>
    </g>
    <!-- S1 -->
    <g transform="translate(106.427039 129.381798) scale(0.07 -0.07)">
     <defs>
      <path id="DejaVuSans-53" d="M 3425 4513 
L 3425 3897 
Q 3066 4069 2747 4153 
Q 2428 4238 2131 4238 
Q 1616 4238 1336 4038 
Q 1056 3838 1056 3469 
Q 1056 3159 1242 3001 
Q 1428 2844 1947 2747 
L 2328 2669 
Q 3034 2534 3370 2195 
Q 3706 1856 3706 1288 
Q 3706 609 3251 259 
Q 2797 -91 1919 -91 
Q 1588 -91 1214 -16 
Q 841 59 441 206 
L 441 856 
Q 825 641 1194 531 
Q 1563 422 1919 422 
Q 2459 422 2753 634 
Q 3047 847 3047 1241 
Q 3047 1584 2836 1778 
Q 2625 1972 2144 2069 
L 1759 2144 
Q 1053 2284 737 2584 
Q 422 2884 422 3419 
Q 422 4038 858 4394 
Q 1294 4750 2059 4750 
Q 2388 4750 2728 4690 
Q 3069 4631 3425 4513 
z
" transform="scale(0.015625)"/>
     </defs>
     <use xlink:href="#DejaVuSans-53"/>
     <use xlink:href="#DejaVuSans-31" x="63.476562"/>
    </g>
   </g>
   <g id="text_27">
    <g id="patch_12">
     <path d="M 102.875863 102.972192 
L 120.432738 102.972192 
L 120.432738 88.217505 
L 102.875863 88.217505 
z
" style="fill: #ffffff; opacity: 0.3; stroke: #000000; stroke-linejoin: miter"/>
    </g>
    <!-- U2 -->
    <g transform="translate(106.865863 97.526411) scale(0.07 -0.07)">
     <use xlink:href="#DejaVuSans-55"/>
     <use xlink:href="#DejaVuSans-32" x="73.193359"/>
    </g>
   </g>
   <g id="text_28">
    <g id="patch_13">
     <path d="M 131.484302 161.680273 
L 149.428365 161.680273 
L 149.428365 146.925586 
L 131.484302 146.925586 
z
" style="fill: #ffffff; opacity: 0.3; stroke: #000000; stroke-linejoin: miter"/>
    </g>
    <!-- O1 -->
    <g transform="translate(135.474302 156.234492) scale(0.07 -0.07)">
     <defs>
      <path id="DejaVuSans-4f" d="M 2522 4238 
Q 1834 4238 1429 3725 
Q 1025 3213 1025 2328 
Q 1025 1447 1429 934 
Q 1834 422 2522 422 
Q 3209 422 3611 934 
Q 4013 1447 4013 2328 
Q 4013 3213 3611 3725 
Q 3209 4238 2522 4238 
z
M 2522 4750 
Q 3503 4750 4090 4092 
Q 4678 3434 4678 2328 
Q 4678 1225 4090 567 
Q 3503 -91 2522 -91 
Q 1538 -91 948 565 
Q 359 1222 359 2328 
Q 359 3434 948 4092 
Q 1538 4750 2522 4750 
z
" transform="scale(0.015625)"/>
     </defs>
     <use xlink:href="#DejaVuSans-4f"/>
     <use xlink:href="#DejaVuSans-31" x="78.710938"/>
    </g>
   </g>
   <g id="text_29">
    <g id="patch_14">
     <path d="M 123.454739 125.042899 
L 140.332395 125.042899 
L 140.332395 110.288212 
L 123.454739 110.288212 
z
" style="fill: #ffffff; opacity: 0.3; stroke: #000000; stroke-linejoin: miter"/>
    </g>
    <!-- S2 -->
    <g transform="translate(127.444739 119.597118) scale(0.07 -0.07)">
     <use xlink:href="#DejaVuSans-53"/>
     <use xlink:href="#DejaVuSans-32" x="63.476562"/>
    </g>
   </g>
   <g id="text_30">
    <g id="patch_15">
     <path d="M 123.244868 83.108556 
L 140.801743 83.108556 
L 140.801743 68.353868 
L 123.244868 68.353868 
z
" style="fill: #ffffff; opacity: 0.3; stroke: #000000; stroke-linejoin: miter"/>
    </g>
    <!-- U3 -->
    <g transform="translate(127.234868 77.662775) scale(0.07 -0.07)">
     <use xlink:href="#DejaVuSans-55"/>
     <use xlink:href="#DejaVuSans-33" x="73.193359"/>
    </g>
   </g>
   <g id="text_31">
    <g id="patch_16">
     <path d="M 160.026858 157.266132 
L 177.97092 157.266132 
L 177.97092 142.511444 
L 160.026858 142.511444 
z
" style="fill: #ffffff; opacity: 0.3; stroke: #000000; stroke-linejoin: miter"/>
    </g>
    <!-- O2 -->
    <g transform="translate(164.016858 151.82035) scale(0.07 -0.07)">
     <use xlink:href="#DejaVuSans-4f"/>
     <use xlink:href="#DejaVuSans-32" x="78.710938"/>
    </g>
   </g>
   <g id="text_32">
    <g id="patch_17">
     <path d="M 148.364605 110.917647 
L 165.242261 110.917647 
L 165.242261 96.162959 
L 148.364605 96.162959 
z
" style="fill: #ffffff; opacity: 0.3; stroke: #000000; stroke-linejoin: miter"/>
    </g>
    <!-- S3 -->
    <g transform="translate(152.354605 105.471866) scale(0.07 -0.07)">
     <use xlink:href="#DejaVuSans-53"/>
     <use xlink:href="#DejaVuSans-33" x="63.476562"/>
    </g>
   </g>
   <g id="text_33">
    <g id="patch_18">
     <path d="M 144.604523 54.203606 
L 161.241554 54.203606 
L 161.241554 39.448919 
L 144.604523 39.448919 
z
" style="fill: #ffffff; opacity: 0.3; stroke: #000000; stroke-linejoin: miter"/>
    </g>
    <!-- Ph -->
    <g transform="translate(148.594523 48.757825) scale(0.07 -0.07)">
     <defs>
      <path id="DejaVuSans-68" d="M 3513 2113 
L 3513 0 
L 2938 0 
L 2938 2094 
Q 2938 2591 2744 2837 
Q 2550 3084 2163 3084 
Q 1697 3084 1428 2787 
Q 1159 2491 1159 1978 
L 1159 0 
L 581 0 
L 581 4863 
L 1159 4863 
L 1159 2956 
Q 1366 3272 1645 3428 
Q 1925 3584 2291 3584 
Q 2894 3584 3203 3211 
Q 3513 2838 3513 2113 
z
" transform="scale(0.015625)"/>
     </defs>
     <use xlink:href="#DejaVuSans-50"/>
     <use xlink:href="#DejaVuSans-68" x="60.302734"/>
    </g>
   </g>
   <g id="text_34">
    <g id="patch_19">
     <path d="M 201.932519 152.631283 
L 219.876581 152.631283 
L 219.876581 137.876596 
L 201.932519 137.876596 
z
" style="fill: #ffffff; opacity: 0.3; stroke: #000000; stroke-linejoin: miter"/>
    </g>
    <!-- O3 -->
    <g transform="translate(205.922519 147.185502) scale(0.07 -0.07)">
     <use xlink:href="#DejaVuSans-4f"/>
     <use xlink:href="#DejaVuSans-33" x="78.710938"/>
    </g>
   </g>
   <g id="text_35">
    <g id="patch_20">
     <path d="M 190.746481 74.128109 
L 203.00195 74.128109 
L 203.00195 59.373421 
L 190.746481 59.373421 
z
" style="fill: #ffffff; opacity: 0.3; stroke: #000000; stroke-linejoin: miter"/>
    </g>
    <!-- T -->
    <g transform="translate(194.736481 68.682327) scale(0.07 -0.07)">
     <defs>
      <path id="DejaVuSans-54" d="M -19 4666 
L 3928 4666 
L 3928 4134 
L 2272 4134 
L 2272 0 
L 1638 0 
L 1638 4134 
L -19 4134 
L -19 4666 
z
" transform="scale(0.015625)"/>
     </defs>
     <use xlink:href="#DejaVuSans-54"/>
    </g>
   </g>
   <g id="text_36">
    <g id="patch_21">
     <path d="M 235.490191 102.905021 
L 248.334098 102.905021 
L 248.334098 88.150333 
L 235.490191 88.150333 
z
" style="fill: #ffffff; opacity: 0.3; stroke: #000000; stroke-linejoin: miter"/>
    </g>
    <!-- R -->
    <g transform="translate(239.480191 97.459239) scale(0.07 -0.07)">
     <defs>
      <path id="DejaVuSans-52" d="M 2841 2188 
Q 3044 2119 3236 1894 
Q 3428 1669 3622 1275 
L 4263 0 
L 3584 0 
L 2988 1197 
Q 2756 1666 2539 1819 
Q 2322 1972 1947 1972 
L 1259 1972 
L 1259 0 
L 628 0 
L 628 4666 
L 2053 4666 
Q 2853 4666 3247 4331 
Q 3641 3997 3641 3322 
Q 3641 2881 3436 2590 
Q 3231 2300 2841 2188 
z
M 1259 4147 
L 1259 2491 
L 2053 2491 
Q 2509 2491 2742 2702 
Q 2975 2913 2975 3322 
Q 2975 3731 2742 3939 
Q 2509 4147 2053 4147 
L 1259 4147 
z
" transform="scale(0.015625)"/>
     </defs>
     <use xlink:href="#DejaVuSans-52"/>
    </g>
   </g>
   <g id="text_37">
    <!-- Extended TAS Diagram -->
    <g transform="translate(115.666172 16.56) scale(0.07 -0.07)">
     <defs>
      <path id="DejaVuSans-45" d="M 628 4666 
L 3578 4666 
L 3578 4134 
L 1259 4134 
L 1259 2753 
L 3481 2753 
L 3481 2222 
L 1259 2222 
L 1259 531 
L 3634 531 
L 3634 0 
L 628 0 
L 628 4666 
z
" transform="scale(0.015625)"/>
      <path id="DejaVuSans-78" d="M 3513 3500 
L 2247 1797 
L 3578 0 
L 2900 0 
L 1881 1375 
L 863 0 
L 184 0 
L 1544 1831 
L 300 3500 
L 978 3500 
L 1906 2253 
L 2834 3500 
L 3513 3500 
z
" transform="scale(0.015625)"/>
      <path id="DejaVuSans-74" d="M 1172 4494 
L 1172 3500 
L 2356 3500 
L 2356 3053 
L 1172 3053 
L 1172 1153 
Q 1172 725 1289 603 
Q 1406 481 1766 481 
L 2356 481 
L 2356 0 
L 1766 0 
Q 1100 0 847 248 
Q 594 497 594 1153 
L 594 3053 
L 172 3053 
L 172 3500 
L 594 3500 
L 594 4494 
L 1172 4494 
z
" transform="scale(0.015625)"/>
      <path id="DejaVuSans-65" d="M 3597 1894 
L 3597 1613 
L 953 1613 
Q 991 1019 1311 708 
Q 1631 397 2203 397 
Q 2534 397 2845 478 
Q 3156 559 3463 722 
L 3463 178 
Q 3153 47 2828 -22 
Q 2503 -91 2169 -91 
Q 1331 -91 842 396 
Q 353 884 353 1716 
Q 353 2575 817 3079 
Q 1281 3584 2069 3584 
Q 2775 3584 3186 3129 
Q 3597 2675 3597 1894 
z
M 3022 2063 
Q 3016 2534 2758 2815 
Q 2500 3097 2075 3097 
Q 1594 3097 1305 2825 
Q 1016 2553 972 2059 
L 3022 2063 
z
" transform="scale(0.015625)"/>
      <path id="DejaVuSans-6e" d="M 3513 2113 
L 3513 0 
L 2938 0 
L 2938 2094 
Q 2938 2591 2744 2837 
Q 2550 3084 2163 3084 
Q 1697 3084 1428 2787 
Q 1159 2491 1159 1978 
L 1159 0 
L 581 0 
L 581 3500 
L 1159 3500 
L 1159 2956 
Q 1366 3272 1645 3428 
Q 1925 3584 2291 3584 
Q 2894 3584 3203 3211 
Q 3513 2838 3513 2113 
z
" transform="scale(0.015625)"/>
      <path id="DejaVuSans-64" d="M 2906 2969 
L 2906 4863 
L 3481 4863 
L 3481 0 
L 2906 0 
L 2906 525 
Q 2725 213 2448 61 
Q 2172 -91 1784 -91 
Q 1150 -91 751 415 
Q 353 922 353 1747 
Q 353 2572 751 3078 
Q 1150 3584 1784 3584 
Q 2172 3584 2448 3432 
Q 2725 3281 2906 2969 
z
M 947 1747 
Q 947 1113 1208 752 
Q 1469 391 1925 391 
Q 2381 391 2643 752 
Q 2906 1113 2906 1747 
Q 2906 2381 2643 2742 
Q 2381 3103 1925 3103 
Q 1469 3103 1208 2742 
Q 947 2381 947 1747 
z
" transform="scale(0.015625)"/>
      <path id="DejaVuSans-20" transform="scale(0.015625)"/>
      <path id="DejaVuSans-41" d="M 2188 4044 
L 1331 1722 
L 3047 1722 
L 2188 4044 
z
M 1831 4666 
L 2547 4666 
L 4325 0 
L 3669 0 
L 3244 1197 
L 1141 1197 
L 716 0 
L 50 0 
L 1831 4666 
z
" transform="scale(0.015625)"/>
      <path id="DejaVuSans-44" d="M 1259 4147 
L 1259 519 
L 2022 519 
Q 2988 519 3436 956 
Q 3884 1394 3884 2338 
Q 3884 3275 3436 3711 
Q 2988 4147 2022 4147 
L 1259 4147 
z
M 628 4666 
L 1925 4666 
Q 3281 4666 3915 4102 
Q 4550 3538 4550 2338 
Q 4550 1131 3912 565 
Q 3275 0 1925 0 
L 628 0 
L 628 4666 
z
" transform="scale(0.015625)"/>
      <path id="DejaVuSans-69" d="M 603 3500 
L 1178 3500 
L 1178 0 
L 603 0 
L 603 3500 
z
M 603 4863 
L 1178 4863 
L 1178 4134 
L 603 4134 
L 603 4863 
z
" transform="scale(0.015625)"/>
      <path id="DejaVuSans-61" d="M 2194 1759 
Q 1497 1759 1228 1600 
Q 959 1441 959 1056 
Q 959 750 1161 570 
Q 1363 391 1709 391 
Q 2188 391 2477 730 
Q 2766 1069 2766 1631 
L 2766 1759 
L 2194 1759 
z
M 3341 1997 
L 3341 0 
L 2766 0 
L 2766 531 
Q 2569 213 2275 61 
Q 1981 -91 1556 -91 
Q 1019 -91 701 211 
Q 384 513 384 1019 
Q 384 1609 779 1909 
Q 1175 2209 1959 2209 
L 2766 2209 
L 2766 2266 
Q 2766 2663 2505 2880 
Q 2244 3097 1772 3097 
Q 1472 3097 1187 3025 
Q 903 2953 641 2809 
L 641 3341 
Q 956 3463 1253 3523 
Q 1550 3584 1831 3584 
Q 2591 3584 2966 3190 
Q 3341 2797 3341 1997 
z
" transform="scale(0.015625)"/>
      <path id="DejaVuSans-67" d="M 2906 1791 
Q 2906 2416 2648 2759 
Q 2391 3103 1925 3103 
Q 1463 3103 1205 2759 
Q 947 2416 947 1791 
Q 947 1169 1205 825 
Q 1463 481 1925 481 
Q 2391 481 2648 825 
Q 2906 1169 2906 1791 
z
M 3481 434 
Q 3481 -459 3084 -895 
Q 2688 -1331 1869 -1331 
Q 1566 -1331 1297 -1286 
Q 1028 -1241 775 -1147 
L 775 -588 
Q 1028 -725 1275 -790 
Q 1522 -856 1778 -856 
Q 2344 -856 2625 -561 
Q 2906 -266 2906 331 
L 2906 616 
Q 2728 306 2450 153 
Q 2172 0 1784 0 
Q 1141 0 747 490 
Q 353 981 353 1791 
Q 353 2603 747 3093 
Q 1141 3584 1784 3584 
Q 2172 3584 2450 3431 
Q 2728 3278 2906 2969 
L 2906 3500 
L 3481 3500 
L 3481 434 
z
" transform="scale(0.015625)"/>
      <path id="DejaVuSans-72" d="M 2631 2963 
Q 2534 3019 2420 3045 
Q 2306 3072 2169 3072 
Q 1681 3072 1420 2755 
Q 1159 2438 1159 1844 
L 1159 0 
L 581 0 
L 581 3500 
L 1159 3500 
L 1159 2956 
Q 1341 3275 1631 3429 
Q 1922 3584 2338 3584 
Q 2397 3584 2469 3576 
Q 2541 3569 2628 3553 
L 2631 2963 
z
" transform="scale(0.015625)"/>
      <path id="DejaVuSans-6d" d="M 3328 2828 
Q 3544 3216 3844 3400 
Q 4144 3584 4550 3584 
Q 5097 3584 5394 3201 
Q 5691 2819 5691 2113 
L 5691 0 
L 5113 0 
L 5113 2094 
Q 5113 2597 4934 2840 
Q 4756 3084 4391 3084 
Q 3944 3084 3684 2787 
Q 3425 2491 3425 1978 
L 3425 0 
L 2847 0 
L 2847 2094 
Q 2847 2600 2669 2842 
Q 2491 3084 2119 3084 
Q 1678 3084 1418 2786 
Q 1159 2488 1159 1978 
L 1159 0 
L 581 0 
L 581 3500 
L 1159 3500 
L 1159 2956 
Q 1356 3278 1631 3431 
Q 1906 3584 2284 3584 
Q 2666 3584 2933 3390 
Q 3200 3197 3328 2828 
z
" transform="scale(0.015625)"/>
     </defs>
     <use xlink:href="#DejaVuSans-45"/>
     <use xlink:href="#DejaVuSans-78" x="63.183594"/>
     <use xlink:href="#DejaVuSans-74" x="122.363281"/>
     <use xlink:href="#DejaVuSans-65" x="161.572266"/>
     <use xlink:href="#DejaVuSans-6e" x="223.095703"/>
     <use xlink:href="#DejaVuSans-64" x="286.474609"/>
     <use xlink:href="#DejaVuSans-65" x="349.951172"/>
     <use xlink:href="#DejaVuSans-64" x="411.474609"/>
     <use xlink:href="#DejaVuSans-20" x="474.951172"/>
     <use xlink:href="#DejaVuSans-54" x="506.738281"/>
     <use xlink:href="#DejaVuSans-41" x="560.072266"/>
     <use xlink:href="#DejaVuSans-53" x="628.480469"/>
     <use xlink:href="#DejaVuSans-20" x="691.957031"/>
     <use xlink:href="#DejaVuSans-44" x="723.744141"/>
     <use xlink:href="#DejaVuSans-69" x="800.746094"/>
     <use xlink:href="#DejaVuSans-61" x="828.529297"/>
     <use xlink:href="#DejaVuSans-67" x="889.808594"/>
     <use xlink:href="#DejaVuSans-72" x="953.285156"/>
     <use xlink:href="#DejaVuSans-61" x="994.398438"/>
     <use xlink:href="#DejaVuSans-6d" x="1055.677734"/>
    </g>
   </g>
   <g id="legend_1">
    <g id="patch_22">
     <path d="M 182.132344 48.709375 
L 267.89 48.709375 
Q 269.29 48.709375 269.29 47.309375 
L 269.29 27.46 
Q 269.29 26.06 267.89 26.06 
L 182.132344 26.06 
Q 180.732344 26.06 180.732344 27.46 
L 180.732344 47.309375 
Q 180.732344 48.709375 182.132344 48.709375 
z
" style="fill: #ffffff; opacity: 0.8; stroke: #cccccc; stroke-linejoin: miter"/>
    </g>
    <g id="PathCollection_3">
     <path d="M 190.532344 30.760267 
L 190.177356 31.852807 
L 189.028591 31.852807 
L 189.957961 32.528034 
L 189.602974 33.620574 
L 190.532344 32.945348 
L 191.461714 33.620574 
L 191.106726 32.528034 
L 192.036096 31.852807 
L 190.887332 31.852807 
z
" style="fill: #008000; fill-opacity: 0.6; stroke: #008000; stroke-opacity: 0.6"/>
    </g>
    <g id="text_38">
     <!-- Wang chong 2016 -->
     <g transform="translate(203.132344 34.178906) scale(0.07 -0.07)">
      <defs>
       <path id="DejaVuSans-57" d="M 213 4666 
L 850 4666 
L 1831 722 
L 2809 4666 
L 3519 4666 
L 4500 722 
L 5478 4666 
L 6119 4666 
L 4947 0 
L 4153 0 
L 3169 4050 
L 2175 0 
L 1381 0 
L 213 4666 
z
" transform="scale(0.015625)"/>
       <path id="DejaVuSans-6f" d="M 1959 3097 
Q 1497 3097 1228 2736 
Q 959 2375 959 1747 
Q 959 1119 1226 758 
Q 1494 397 1959 397 
Q 2419 397 2687 759 
Q 2956 1122 2956 1747 
Q 2956 2369 2687 2733 
Q 2419 3097 1959 3097 
z
M 1959 3584 
Q 2709 3584 3137 3096 
Q 3566 2609 3566 1747 
Q 3566 888 3137 398 
Q 2709 -91 1959 -91 
Q 1206 -91 779 398 
Q 353 888 353 1747 
Q 353 2609 779 3096 
Q 1206 3584 1959 3584 
z
" transform="scale(0.015625)"/>
      </defs>
      <use xlink:href="#DejaVuSans-57"/>
      <use xlink:href="#DejaVuSans-61" x="92.501953"/>
      <use xlink:href="#DejaVuSans-6e" x="153.78125"/>
      <use xlink:href="#DejaVuSans-67" x="217.160156"/>
      <use xlink:href="#DejaVuSans-20" x="280.636719"/>
      <use xlink:href="#DejaVuSans-63" x="312.423828"/>
      <use xlink:href="#DejaVuSans-68" x="367.404297"/>
      <use xlink:href="#DejaVuSans-6f" x="430.783203"/>
      <use xlink:href="#DejaVuSans-6e" x="491.964844"/>
      <use xlink:href="#DejaVuSans-67" x="555.34375"/>
      <use xlink:href="#DejaVuSans-20" x="618.820312"/>
      <use xlink:href="#DejaVuSans-32" x="650.607422"/>
      <use xlink:href="#DejaVuSans-30" x="714.230469"/>
      <use xlink:href="#DejaVuSans-31" x="777.853516"/>
      <use xlink:href="#DejaVuSans-36" x="841.476562"/>
     </g>
    </g>
    <g id="PathCollection_4">
     <path d="M 190.532344 44.197233 
C 190.951667 44.197233 191.353872 44.030634 191.650378 43.734128 
C 191.946884 43.437622 192.113483 43.035417 192.113483 42.616094 
C 192.113483 42.196771 191.946884 41.794566 191.650378 41.49806 
C 191.353872 41.201554 190.951667 41.034955 190.532344 41.034955 
C 190.113021 41.034955 189.710816 41.201554 189.41431 41.49806 
C 189.117804 41.794566 188.951205 42.196771 188.951205 42.616094 
C 188.951205 43.035417 189.117804 43.437622 189.41431 43.734128 
C 189.710816 44.030634 190.113021 44.197233 190.532344 44.197233 
z
" style="fill: #ff0000; fill-opacity: 0.6; stroke: #ff0000; stroke-opacity: 0.6"/>
    </g>
    <g id="text_39">
     <!-- Zhang SH2016 -->
     <g transform="translate(203.132344 44.453594) scale(0.07 -0.07)">
      <defs>
       <path id="DejaVuSans-5a" d="M 359 4666 
L 4025 4666 
L 4025 4184 
L 1075 531 
L 4097 531 
L 4097 0 
L 288 0 
L 288 481 
L 3238 4134 
L 359 4134 
L 359 4666 
z
" transform="scale(0.015625)"/>
       <path id="DejaVuSans-48" d="M 628 4666 
L 1259 4666 
L 1259 2753 
L 3553 2753 
L 3553 4666 
L 4184 4666 
L 4184 0 
L 3553 0 
L 3553 2222 
L 1259 2222 
L 1259 0 
L 628 0 
L 628 4666 
z
" transform="scale(0.015625)"/>
      </defs>
      <use xlink:href="#DejaVuSans-5a"/>
      <use xlink:href="#DejaVuSans-68" x="68.505859"/>
      <use xlink:href="#DejaVuSans-61" x="131.884766"/>
      <use xlink:href="#DejaVuSans-6e" x="193.164062"/>
      <use xlink:href="#DejaVuSans-67" x="256.542969"/>
      <use xlink:href="#DejaVuSans-20" x="320.019531"/>
      <use xlink:href="#DejaVuSans-53" x="351.806641"/>
      <use xlink:href="#DejaVuSans-48" x="415.283203"/>
      <use xlink:href="#DejaVuSans-32" x="490.478516"/>
      <use xlink:href="#DejaVuSans-30" x="554.101562"/>
      <use xlink:href="#DejaVuSans-31" x="617.724609"/>
      <use xlink:href="#DejaVuSans-36" x="681.347656"/>
     </g>
    </g>
   </g>
  </g>
 </g>
 <defs>
  <clipPath id="pe72e949bff">
   <rect x="39.26" y="22.56" width="233.53" height="155.8"/>
  </clipPath>
 </defs>
</svg>
